<svg width="15" height="15" viewBox="0 0 15 15" fill="none" xmlns="http://www.w3.org/2000/svg">
<path d="M9.37987 2.45211C9.17743 2.59203 9.02571 2.77842 8.92906 2.98726C8.48942 2.48233 7.72917 2.37742 7.16604 2.76665C6.89825 2.95174 6.71916 3.21878 6.63957 3.51239C6.22714 3.32618 5.72997 3.35401 5.33125 3.6296C5.13176 3.76748 4.98132 3.95059 4.88464 4.15592L2.88758 1.26658C2.46943 0.66166 1.63753 0.509751 1.03262 0.927855C0.427704 1.34596 0.275769 2.17788 0.693891 2.78281L5.76635 10.1216C5.86185 10.2598 5.81984 10.3937 5.7974 10.4448C5.77497 10.496 5.70396 10.6183 5.53903 10.6412L3.16953 10.9779C2.95359 11.0084 2.74468 11.0903 2.56527 11.2143C1.92473 11.657 1.76383 12.5383 2.20656 13.1789L2.35128 13.3882C2.40384 13.4643 2.48559 13.515 2.57693 13.5287L7.78353 14.295C8.87318 14.4552 9.9725 14.1987 10.8784 13.5726L12.5978 12.3841C14.5633 11.0256 15.0572 8.32108 13.6987 6.35555L11.2348 2.79085C10.8167 2.18591 9.98478 2.034 9.37987 2.45211ZM13.1502 6.7346C14.2998 8.39779 13.882 10.6861 12.2188 11.8357L10.4993 13.0241C9.73294 13.5538 8.80276 13.771 7.88062 13.6351L2.81733 12.89L2.75497 12.7998C2.52119 12.4616 2.60612 11.9965 2.94432 11.7627C3.03885 11.6974 3.14946 11.6542 3.26333 11.638L5.63283 11.3013C5.97866 11.2526 6.26821 11.0315 6.40841 10.7122C6.54824 10.3924 6.51335 10.0299 6.31476 9.74259L1.2423 2.40377C1.03334 2.10145 1.10934 1.68526 1.41166 1.47631C1.71397 1.26735 2.13016 1.34335 2.33912 1.64567L5.18203 5.75879C5.28679 5.91036 5.49422 5.94824 5.64578 5.84348C5.79735 5.73872 5.83523 5.5313 5.73047 5.37973L5.54093 5.10551C5.33198 4.80319 5.40798 4.38701 5.71029 4.17805C6.01261 3.9691 6.4288 4.0451 6.63775 4.34741L6.82728 4.62163C6.82766 4.62217 6.82803 4.62271 6.8284 4.62325L6.82858 4.6235C6.93368 4.77325 7.14026 4.81052 7.29104 4.70631C7.4426 4.60155 7.48048 4.39413 7.37572 4.24256L7.37275 4.23827C7.16741 3.93661 7.24462 3.52273 7.54506 3.31508C7.84737 3.10612 8.26356 3.18212 8.47252 3.48444L9.0411 4.30706C9.14586 4.45863 9.35328 4.49651 9.50485 4.39174C9.65642 4.28698 9.6943 4.07956 9.58954 3.92799C9.38058 3.62568 9.45658 3.20949 9.75889 3.00054C10.0612 2.79158 10.4774 2.86756 10.6864 3.1699L13.1502 6.7346Z" fill="black"/>
</svg>
